<?xml version="1.0" encoding="UTF-8" standalone="no"?>
<!-- Generator: Adobe Illustrator 19.0.0, SVG Export Plug-In . SVG Version: 6.00 Build 0)  -->

<svg
   version="1.1"
   id="layer"
   x="0px"
   y="0px"
   viewBox="-153 -46 652 250"
   xml:space="preserve"
   sodipodi:docname="vhv-versicherungen-vector-logo.svg"
   width="652"
   height="250"
   inkscape:version="1.1.1 (3bf5ae0d25, 2021-09-20)"
   xmlns:inkscape="http://www.inkscape.org/namespaces/inkscape"
   xmlns:sodipodi="http://sodipodi.sourceforge.net/DTD/sodipodi-0.dtd"
   xmlns="http://www.w3.org/2000/svg"
   xmlns:svg="http://www.w3.org/2000/svg"><defs
   id="defs49" /><sodipodi:namedview
   id="namedview47"
   pagecolor="#ffffff"
   bordercolor="#666666"
   borderopacity="1.0"
   inkscape:pageshadow="2"
   inkscape:pageopacity="0.0"
   inkscape:pagecheckerboard="0"
   showgrid="false"
   inkscape:zoom="0.47339281"
   inkscape:cx="134.13808"
   inkscape:cy="253.48928"
   inkscape:window-width="1920"
   inkscape:window-height="1043"
   inkscape:window-x="0"
   inkscape:window-y="534"
   inkscape:window-maximized="1"
   inkscape:current-layer="layer" />
<style
   type="text/css"
   id="style2">
	.st0{fill:#231815;}
	.st1{fill:#F18F10;}
</style>
<polygon
   class="st0"
   points="-103.5,304.3 -60.1,304.3 -32.2,175.2 -68,175.2 -81.6,272.5 -81.9,272.5 -95.5,175.2 -131.3,175.2 "
   id="polygon4"
   transform="translate(0,-192.078)" />
<polygon
   class="st0"
   points="-27.7,304.3 6,304.3 6,251.1 26.6,251.1 26.6,304.3 60.2,304.3 60.2,175.2 26.6,175.2 26.6,222.6 6,222.6 6,175.2 -27.7,175.2 "
   id="polygon6"
   transform="translate(0,-192.078)" />
<polygon
   class="st0"
   points="92.6,304.3 136,304.3 163.9,175.2 128.1,175.2 114.5,272.5 114.1,272.5 100.5,175.2 64.8,175.2 "
   id="polygon8"
   transform="translate(0,-192.078)" />
<polygon
   class="st0"
   points="-106.2,375.2 -86.8,375.2 -74.4,317.6 -90.4,317.6 -96.4,361 -96.6,361 -102.6,317.6 -118.6,317.6 "
   id="polygon10"
   transform="translate(0,-192.078)" />
<polygon
   class="st0"
   points="-57.4,351.5 -39.4,351.5 -39.4,339.7 -57.4,339.7 -57.4,329.9 -38.2,329.9 -38.2,317.6 -72.4,317.6 -72.4,375.2 -37.5,375.2 -37.5,363 -57.4,363 "
   id="polygon12"
   transform="translate(0,-192.078)" />
<g
   id="g44"
   transform="translate(0,-192.078)">
	<path
   class="st0"
   d="m -32.4,317.6 h 23.5 c 11.5,0 15.8,6.5 15.8,15.3 0,7.7 -3,12.7 -9.8,13.7 v 0.2 c 7.3,0.7 9.4,5.3 9.4,12.9 v 4.9 c 0,3 0,6.8 0.7,8 0.4,0.6 0.7,1.3 1.7,1.8 v 0.8 h -16 c -1.5,-3.1 -1.5,-8.6 -1.5,-11 v -3.9 c 0,-6.5 -1.3,-8.2 -4.9,-8.2 h -3.9 v 23.1 h -15 z m 15,24.4 h 3 c 4.3,0 6.3,-2.7 6.3,-6.8 0,-4.7 -1.9,-6.7 -6.4,-6.7 h -2.9 z"
   id="path14" />
	<path
   class="st0"
   d="m 35.9,334.2 v -1.4 c 0,-3.4 -1.4,-6.2 -4.3,-6.2 -3.2,0 -4.7,2.5 -4.7,5.1 0,11.4 24.5,5.8 24.5,26.9 0,12.3 -7.2,17.8 -20.4,17.8 -12.4,0 -19.4,-4.3 -19.4,-16.2 v -2 h 14.5 v 1.4 c 0,4.9 2,6.7 4.9,6.7 3.1,0 4.9,-2.4 4.9,-5.6 0,-11.4 -23.6,-5.7 -23.6,-26.1 0,-11.6 6.2,-18 18.9,-18 13.1,0 18.6,5.4 18.6,17.7 H 35.9 Z"
   id="path16" />
	<rect
   x="55.900002"
   y="317.60001"
   class="st0"
   width="15"
   height="57.599998"
   id="rect18" />
	<path
   class="st0"
   d="m 100,335.1 c 0,-6.5 -1.2,-8.5 -4.1,-8.5 -4.6,0 -5.1,4.2 -5.1,19.8 0,15.6 0.5,19.8 5.1,19.8 3.7,0 4.5,-3.3 4.5,-14.1 H 115 v 4.3 c 0,16.1 -9.4,20 -19.1,20 -16.9,0 -20.6,-8.5 -20.6,-30 0,-22 5,-29.9 20.6,-29.9 13.6,0 18.6,7.1 18.6,18.2 v 3.6 H 100 Z"
   id="path20" />
	<polygon
   class="st0"
   points="159.2,317.6 159.2,375.2 144.2,375.2 144.2,351.5 135,351.5 135,375.2 120,375.2 120,317.6 135,317.6 135,338.8 144.2,338.8 144.2,317.6 "
   id="polygon22" />
	<polygon
   class="st0"
   points="198.8,339.7 198.8,351.5 180.9,351.5 180.9,363 200.7,363 200.7,375.2 165.9,375.2 165.9,317.6 200,317.6 200,329.9 180.9,329.9 180.9,339.7 "
   id="polygon24" />
	<path
   class="st0"
   d="m 205.8,317.6 h 23.5 c 11.4,0 15.8,6.5 15.8,15.3 0,7.7 -3,12.7 -9.9,13.7 v 0.2 c 7.3,0.7 9.4,5.3 9.4,12.9 v 4.9 c 0,3 0,6.8 0.7,8 0.4,0.6 0.7,1.3 1.7,1.8 v 0.8 h -16 c -1.5,-3.1 -1.5,-8.6 -1.5,-11 v -3.9 c 0,-6.5 -1.3,-8.2 -4.9,-8.2 h -4 v 23.1 h -15 v -57.6 z m 15,24.4 h 3 c 4.3,0 6.3,-2.7 6.3,-6.8 0,-4.7 -1.9,-6.7 -6.4,-6.7 h -2.9 z"
   id="path26" />
	<path
   class="st0"
   d="m 266.1,317.6 v 41.6 c 0,5.6 1.7,7 4.5,7 2.8,0 4.5,-1.5 4.5,-7 v -41.6 h 15 v 37.8 c 0,16.1 -6.9,21 -19.5,21 -12.6,0 -19.5,-4.8 -19.5,-21 v -37.8 z"
   id="path28" />
	<polygon
   class="st0"
   points="336.9,317.6 336.9,375.2 320.4,375.2 310.4,339.6 310.3,339.6 310.3,375.2 296.2,375.2 296.2,317.6 313,317.6 322.7,353.1 322.8,353.1 322.8,317.6 "
   id="polygon30" />
	<path
   class="st0"
   d="m 363,343.9 h 19.4 v 31.3 h -10.2 l -0.3,-5.1 h -0.2 c -2,4.9 -7.3,6.2 -12.4,6.2 -15.2,0 -16.6,-10.9 -16.6,-30 0,-19.3 3.7,-29.9 21.4,-29.9 10.7,0 18.3,5.4 18.3,19.4 h -14.5 c 0,-2.9 -0.2,-5.2 -0.8,-6.7 -0.6,-1.6 -1.7,-2.5 -3.5,-2.5 -4.9,0 -5.4,4.2 -5.4,19.8 0,15.6 0.5,19.8 5.1,19.8 3.1,0 5,-2 5.1,-12.1 H 363 Z"
   id="path32" />
	<polygon
   class="st0"
   points="421,339.7 421,351.5 403.1,351.5 403.1,363 422.9,363 422.9,375.2 388.1,375.2 388.1,317.6 422.2,317.6 422.2,329.9 403.1,329.9 403.1,339.7 "
   id="polygon34" />
	<polygon
   class="st0"
   points="468.7,317.6 468.7,375.2 452.2,375.2 442.2,339.6 442.1,339.6 442.1,375.2 428,375.2 428,317.6 444.8,317.6 454.5,353.1 454.6,353.1 454.6,317.6 "
   id="polygon36" />
	<polygon
   class="st1"
   points="192.9,304.3 221,175.2 193.9,175.2 165.8,304.3 "
   id="polygon38" />
	<polygon
   class="st1"
   points="233.9,304.3 261.9,175.2 234.8,175.2 206.7,304.3 "
   id="polygon40" />
	<polygon
   class="st1"
   points="275.1,304.3 303.1,175.2 276,175.2 248,304.3 "
   id="polygon42" />
</g>
</svg>
